<svg width="86" height="86" viewBox="0 0 86 86" fill="none"
    xmlns="http://www.w3.org/2000/svg">
    <path d="M42.5521 54.4269V22.7603" stroke="white" stroke-width="1.5" stroke-linecap="round"/>
    <path d="M26.7188 46.5106V30.6772" stroke="white" stroke-width="1.5" stroke-linecap="round"/>
    <path d="M58.3854 46.5106V30.6772" stroke="white" stroke-width="1.5" stroke-linecap="round"/>
    <path d="M8.15631e-07 36.6146C8.15631e-07 38.2541 1.32917 39.5833 2.96875 39.5833C4.60833 39.5833 5.9375 38.2541 5.9375 36.6146H8.15631e-07ZM7.21806 56.9066C6.59063 55.3917 4.85399 54.6725 3.33921 55.2999C1.82444 55.9273 1.10509 57.6638 1.73252 59.1787L7.21806 56.9066ZM49.4083 81.2238L51.5541 77.5988L46.4443 74.5742L44.2985 78.1996L49.4083 81.2238ZM33.55 77.5988L35.6959 81.2238L40.8053 78.1996L38.6595 74.5742L33.55 77.5988ZM44.2985 78.1996C43.5357 79.4885 41.5684 79.4885 40.8053 78.1996L35.6959 81.2238C38.758 86.3973 46.3461 86.3973 49.4083 81.2238L44.2985 78.1996ZM36.6146 5.9375H48.4896V8.15631e-07H36.6146V5.9375ZM79.1667 36.6146V40.5729H85.1042V36.6146H79.1667ZM25.937 67.2584C20.9675 67.1725 18.3636 66.8566 16.3225 66.0111L14.0504 71.4966C17.2367 72.8163 20.8659 73.1092 25.8347 73.1947L25.937 67.2584ZM1.73252 59.1787C4.04257 64.7556 8.47345 69.1865 14.0504 71.4966L16.3225 66.0111C12.2005 64.3035 8.92549 61.0288 7.21806 56.9066L1.73252 59.1787ZM79.1667 40.5729C79.1667 45.2243 79.1651 48.5644 78.9854 51.1999C78.8073 53.8088 78.4645 55.5101 77.8861 56.9066L83.3716 59.1787C84.2998 56.9382 84.7103 54.5154 84.909 51.604C85.1058 48.7196 85.1042 45.1432 85.1042 40.5729H79.1667ZM59.2693 73.1947C64.2382 73.1092 67.8676 72.8163 71.0537 71.4966L68.7816 66.0111C66.7407 66.8566 64.1365 67.1725 59.1672 67.2584L59.2693 73.1947ZM77.8861 56.9066C76.1785 61.0288 72.9038 64.3035 68.7816 66.0111L71.0537 71.4966C76.6306 69.1865 81.0615 64.7556 83.3716 59.1787L77.8861 56.9066ZM48.4896 5.9375C55.0256 5.9375 59.7194 5.94063 63.3804 6.28872C66.9976 6.63262 69.2989 7.29216 71.1336 8.41653L74.2362 3.35398C71.3114 1.56184 67.9939 0.763128 63.9425 0.377903C59.9351 -0.00312643 54.9108 8.15631e-07 48.4896 8.15631e-07V5.9375ZM85.1042 36.6146C85.1042 30.1934 85.1073 25.1691 84.7261 21.1617C84.341 17.1101 83.5422 13.7926 81.7503 10.8681L76.6876 13.9705C77.8121 15.8053 78.4716 18.1068 78.8156 21.7237C79.1635 25.3848 79.1667 30.0784 79.1667 36.6146H85.1042ZM71.1336 8.41653C73.3974 9.80368 75.3006 11.7068 76.6876 13.9705L81.7503 10.8681C79.8736 7.8056 77.2987 5.2307 74.2362 3.35398L71.1336 8.41653ZM36.6146 8.15631e-07C30.1934 8.15631e-07 25.1691 -0.00312643 21.1617 0.377903C17.1101 0.763128 13.7926 1.56184 10.8681 3.35398L13.9705 8.41653C15.8053 7.29216 18.1068 6.63262 21.7237 6.28872C25.3848 5.94063 30.0784 5.9375 36.6146 5.9375V8.15631e-07ZM5.9375 36.6146C5.9375 30.0784 5.94063 25.3848 6.28872 21.7237C6.63262 18.1068 7.29216 15.8053 8.41653 13.9705L3.35398 10.8681C1.56184 13.7926 0.763128 17.1101 0.377903 21.1617C-0.00312643 25.1691 8.15631e-07 30.1934 8.15631e-07 36.6146H5.9375ZM10.8681 3.35398C7.8056 5.2307 5.2307 7.8056 3.35398 10.8681L8.41653 13.9705C9.80368 11.7068 11.7069 9.80368 13.9705 8.41653L10.8681 3.35398ZM38.6595 74.5742C37.8559 73.2165 37.1505 72.0183 36.4646 71.077C35.7418 70.0859 34.9133 69.1932 33.764 68.5247L30.7789 73.6575C30.9666 73.7663 31.2222 73.9654 31.6661 74.5742C32.1465 75.2337 32.6893 76.1445 33.55 77.5988L38.6595 74.5742ZM25.8347 73.1947C27.5728 73.2248 28.6737 73.247 29.5129 73.3396C30.297 73.4267 30.601 73.5537 30.7789 73.6575L33.764 68.5247C32.6052 67.8506 31.3993 67.5747 30.1663 67.4381C28.9884 67.3079 27.5648 67.2865 25.937 67.2584L25.8347 73.1947ZM51.5541 77.5988C52.4147 76.1445 52.9574 75.2337 53.4379 74.5742C53.8816 73.9654 54.1373 73.7663 54.325 73.6575L51.34 68.5247C50.1909 69.1932 49.362 70.0859 48.6396 71.077C47.9536 72.0183 47.2482 73.2165 46.4443 74.5742L51.5541 77.5988ZM59.1672 67.2584C57.5391 67.2865 56.1157 67.3079 54.9377 67.4381C53.7047 67.5747 52.499 67.8506 51.34 68.5247L54.325 73.6575C54.5031 73.5537 54.8071 73.4267 55.5912 73.3396C56.4304 73.247 57.5312 73.2248 59.2693 73.1947L59.1672 67.2584Z" fill="white"/>
</svg>
