<svg width="118" height="118" viewBox="0 0 118 118" fill="none"
    xmlns="http://www.w3.org/2000/svg">
    <path d="M88.1534 76.5156C92.9951 79.1669 95.7607 83.8906 95.4141 88.6143C95.1818 91.4942 95.0674 91.6122 91.3799 92.0731C89.0753 92.4198 74.5539 92.5341 59.5752 92.5341C42.6349 92.5341 24.8906 92.1874 23.6221 91.8408C18.5518 90.5723 21.3174 81.3536 28.0029 76.9765C33.1875 73.6356 43.7891 68.5653 46.6727 67.9864C50.5925 67.1788 51.0534 64.7598 46.6727 56.9239C45.6365 55.1944 44.4823 49.8955 44.368 44.3643C44.2537 35.3741 45.9831 29.2676 53.8191 26.2734C55.4342 25.6981 57.0456 25.4658 58.5428 25.4658C63.7274 25.4658 68.5691 28.3458 70.5271 32.6122C73.4071 38.2578 72.2566 53.3544 69.2586 58.7713C65.7997 64.8778 66.1464 66.8396 69.9519 67.8758C72.4889 68.569 80.3248 72.2565 88.1608 76.5193L88.1534 76.5156ZM25.4659 73.0604C23.6221 74.3289 21.8927 75.9403 20.5099 77.5554C16.1291 77.5554 12.7882 77.4411 12.4416 77.3231C9.56169 76.6299 11.1731 71.3309 14.9786 69.0263C17.8586 67.1825 23.7364 64.3026 25.3516 63.9559C27.4276 63.495 27.8886 62.2265 25.3516 57.8494C24.7763 56.9276 24.0831 53.9296 24.0831 50.8211C23.9687 45.7508 25.0049 42.2919 29.3857 40.7948C33.0732 39.4119 37.2216 41.1414 38.7187 44.2536C40.2159 47.4802 39.412 55.7771 37.7969 58.775C35.9531 62.3482 36.2997 63.2701 38.3721 63.8453C38.8331 63.9596 39.7549 64.4206 41.0234 64.9995C35.9531 67.0756 29.0391 70.8774 25.4659 73.0678V73.0604ZM101.292 68.6796C104.058 70.1768 105.555 72.7138 105.326 75.3651C105.212 76.9802 105.212 77.0945 103.136 77.3231C102.56 77.4374 99.9091 77.5554 96.4503 77.5554C94.9531 75.5974 92.8771 73.7536 90.3438 72.4851C85.6201 69.7195 79.8565 66.7216 75.5938 64.8778C76.7479 64.4169 77.7841 64.0703 78.2451 63.9559C80.4354 63.495 80.7821 62.2265 78.2451 57.8494C77.7841 56.9276 76.9766 53.9296 76.9766 50.8211C76.8623 45.7508 77.7841 42.2919 82.1612 40.7948C85.963 39.4119 90.1114 41.1414 91.4943 44.2536C92.9914 47.4802 92.4161 55.7771 90.801 58.775C88.9573 62.3482 89.1859 63.2701 91.1476 63.8453C92.5304 64.3063 96.9112 66.3823 101.288 68.687L101.292 68.6796Z" fill="white" stroke="white"/>
    <path d="M49.9584 12.375C45.0108 12.375 41.0001 16.3858 41.0001 21.3333C41.0001 25.0068 43.2112 28.1639 46.3751 29.5463V34.3229H71.4584V29.5463C74.6223 28.1639 76.8334 25.0068 76.8334 21.3333C76.8334 16.3858 72.8226 12.375 67.8751 12.375C67.4262 12.375 66.9851 12.408 66.5539 12.4717C65.4749 9.28986 62.4632 7 58.9167 7C55.3703 7 52.3585 9.28986 51.2795 12.4717C50.8484 12.408 50.4072 12.375 49.9584 12.375Z" fill="white"/>
    <path d="M71.0386 33.5938H45.9614C45.9796 36.0965 46.1078 37.4672 47.0079 38.3671C48.0574 39.4167 49.7466 39.4167 53.125 39.4167H63.875C67.2534 39.4167 68.9426 39.4167 69.9921 38.3671C70.8922 37.4672 71.0203 36.0965 71.0386 33.5938Z" fill="white"/>
    <path d="M80 32.9508C77.2386 32.9508 75 35.1527 75 37.8689C75 39.8855 76.2341 41.6188 78 42.3777V45H92V42.3777C93.7659 41.6188 95 39.8855 95 37.8689C95 35.1527 92.7614 32.9508 90 32.9508C89.7495 32.9508 89.5033 32.9689 89.2626 33.0039C88.6604 31.2571 86.9794 30 85 30C83.0206 30 81.3396 31.2571 80.7374 33.0039C80.4967 32.9689 80.2505 32.9508 80 32.9508Z" fill="white"/>
    <path d="M27 32.9508C24.2386 32.9508 22 35.1527 22 37.8689C22 39.8855 23.2341 41.6188 25 42.3777V45H39V42.3777C40.7659 41.6188 42 39.8855 42 37.8689C42 35.1527 39.7614 32.9508 37 32.9508C36.7495 32.9508 36.5033 32.9689 36.2626 33.0039C35.6604 31.2571 33.9794 30 32 30C30.0206 30 28.3396 31.2571 27.7374 33.0039C27.4967 32.9689 27.2505 32.9508 27 32.9508Z" fill="white"/>
</svg>
