<svg width="1440" height="1024" viewBox="0 0 1440 1024" fill="none" xmlns="http://www.w3.org/2000/svg">
<g clip-path="url(#clip0_5_2)">
<rect width="1440" height="1024" fill="#212121"/>
<g filter="url(#filter0_f_5_2)">
<path d="M1378 652.5C1378 809.625 1240.55 937 1071 937C901.449 937 764 809.625 764 652.5C764 495.375 901.449 368 1071 368C1240.55 368 1378 495.375 1378 652.5Z" fill="#DE5B11"/>
</g>
<g filter="url(#filter1_f_5_2)">
<path d="M409 83.5C409 240.625 271.551 368 102 368C-67.5514 368 -205 240.625 -205 83.5C-205 -73.625 -67.5514 -201 102 -201C271.551 -201 409 -73.625 409 83.5Z" fill="#DE5B11"/>
</g>
</g>
<defs>
<filter id="filter0_f_5_2" x="64" y="-332" width="2014" height="1969" filterUnits="userSpaceOnUse" color-interpolation-filters="sRGB">
<feFlood flood-opacity="0" result="BackgroundImageFix"/>
<feBlend mode="normal" in="SourceGraphic" in2="BackgroundImageFix" result="shape"/>
<feGaussianBlur stdDeviation="350" result="effect1_foregroundBlur_5_2"/>
</filter>
<filter id="filter1_f_5_2" x="-905" y="-901" width="2014" height="1969" filterUnits="userSpaceOnUse" color-interpolation-filters="sRGB">
<feFlood flood-opacity="0" result="BackgroundImageFix"/>
<feBlend mode="normal" in="SourceGraphic" in2="BackgroundImageFix" result="shape"/>
<feGaussianBlur stdDeviation="350" result="effect1_foregroundBlur_5_2"/>
</filter>
<clipPath id="clip0_5_2">
<rect width="1440" height="1024" fill="white"/>
</clipPath>
</defs>
</svg>
