<svg width="346" height="242" viewBox="0 0 346 242" fill="none" xmlns="http://www.w3.org/2000/svg">
<path d="M327.601 70.959C298.014 37.5463 238.596 0.12212 197.504 60.9564C172.736 97.6232 169.419 148.812 203.938 172.079V172.079C240.031 196.407 266.418 114.652 238.807 80.5405C218.876 55.9164 183.191 41.5653 123.354 61.8874C92.1589 72.4821 64.1634 93.117 45.5963 121.513C36.0038 136.183 26.3233 153.984 18.8755 174.023" stroke="#FFF5F5" stroke-width="1.5" stroke-dasharray="8 8"/>
<path d="M20.0799 183.721C18.1261 185.74 14.7084 184.46 14.8271 181.754L15.9238 156.76C16.0141 154.7 18.2165 153.284 20.183 154.021L37.1313 160.368C39.0979 161.105 39.6116 163.538 38.1248 165.074L20.0799 183.721Z" fill="#FF7A00"/>
<line y1="-1" x2="18.3729" y2="-1" transform="matrix(0.401679 -0.915781 0.936477 0.35073 20 176.826)" stroke="white" stroke-width="2"/>
</svg>
