<svg width="398" height="50" viewBox="0 0 398 50" fill="none"
    xmlns="http://www.w3.org/2000/svg">
    <path d="M32.4656 45L24.7656 31.4H21.4656V45H14.4656V10.1H27.5656C30.2656 10.1 32.5656 10.5833 34.4656 11.55C36.3656 12.4833 37.7823 13.7667 38.7156 15.4C39.6823 17 40.1656 18.8 40.1656 20.8C40.1656 23.1 39.499 25.1833 38.1656 27.05C36.8323 28.8833 34.849 30.15 32.2156 30.85L40.5656 45H32.4656ZM21.4656 26.15H27.3156C29.2156 26.15 30.6323 25.7 31.5656 24.8C32.499 23.8667 32.9656 22.5833 32.9656 20.95C32.9656 19.35 32.499 18.1167 31.5656 17.25C30.6323 16.35 29.2156 15.9 27.3156 15.9H21.4656V26.15ZM58.4969 15.75V24.5H70.2469V30.05H58.4969V39.3H71.7469V45H51.4969V10.05H71.7469V15.75H58.4969ZM81.4082 27.5C81.4082 24.0667 82.1749 21 83.7082 18.3C85.2749 15.5667 87.3915 13.45 90.0582 11.95C92.7582 10.4167 95.7749 9.65 99.1082 9.65C103.008 9.65 106.425 10.65 109.358 12.65C112.292 14.65 114.342 17.4167 115.508 20.95H107.458C106.658 19.2833 105.525 18.0333 104.058 17.2C102.625 16.3667 100.958 15.95 99.0582 15.95C97.0249 15.95 95.2082 16.4333 93.6082 17.4C92.0415 18.3333 90.8082 19.6667 89.9082 21.4C89.0415 23.1333 88.6082 25.1667 88.6082 27.5C88.6082 29.8 89.0415 31.8333 89.9082 33.6C90.8082 35.3333 92.0415 36.6833 93.6082 37.65C95.2082 38.5833 97.0249 39.05 99.0582 39.05C100.958 39.05 102.625 38.6333 104.058 37.8C105.525 36.9333 106.658 35.6667 107.458 34H115.508C114.342 37.5667 112.292 40.35 109.358 42.35C106.458 44.3167 103.042 45.3 99.1082 45.3C95.7749 45.3 92.7582 44.55 90.0582 43.05C87.3915 41.5167 85.2749 39.4 83.7082 36.7C82.1749 34 81.4082 30.9333 81.4082 27.5ZM133.487 10.1V45H126.487V10.1H133.487ZM170.853 20.9C170.853 22.7667 170.403 24.5167 169.503 26.15C168.636 27.7833 167.253 29.1 165.353 30.1C163.486 31.1 161.12 31.6 158.253 31.6H152.403V45H145.403V10.1H158.253C160.953 10.1 163.253 10.5667 165.153 11.5C167.053 12.4333 168.47 13.7167 169.403 15.35C170.37 16.9833 170.853 18.8333 170.853 20.9ZM157.953 25.95C159.886 25.95 161.32 25.5167 162.253 24.65C163.186 23.75 163.653 22.5 163.653 20.9C163.653 17.5 161.753 15.8 157.953 15.8H152.403V25.95H157.953ZM187.823 15.75V24.5H199.573V30.05H187.823V39.3H201.073V45H180.823V10.05H201.073V15.75H187.823Z" fill="#FF8E26"/>
    <path d="M247.236 10.1V45H240.236V30.15H225.286V45H218.286V10.1H225.286V24.45H240.236V10.1H247.236ZM266.026 10.1V31.7C266.026 34.0667 266.642 35.8833 267.876 37.15C269.109 38.3833 270.842 39 273.076 39C275.342 39 277.092 38.3833 278.326 37.15C279.559 35.8833 280.176 34.0667 280.176 31.7V10.1H287.226V31.65C287.226 34.6167 286.576 37.1333 285.276 39.2C284.009 41.2333 282.292 42.7667 280.126 43.8C277.992 44.8333 275.609 45.35 272.976 45.35C270.376 45.35 268.009 44.8333 265.876 43.8C263.776 42.7667 262.109 41.2333 260.876 39.2C259.642 37.1333 259.026 34.6167 259.026 31.65V10.1H266.026ZM328.839 45H321.839L305.989 21.05V45H298.989V10.05H305.989L321.839 34.05V10.05H328.839V45ZM364.507 10.1V15.75H355.207V45H348.207V15.75H338.907V10.1H364.507Z" fill="white"/>
</svg>
